<svg width="400" height="220" viewBox="0 0 400 220" fill="none" xmlns="http://www.w3.org/2000/svg">
<g clip-path="url(#clip0_1_290)">
<path d="M0 20C0 8.9543 8.95431 0 20 0H380C391.046 0 400 8.95431 400 20V200C400 211.046 391.046 220 380 220H20C8.95431 220 0 211.046 0 200V20Z" fill="url(#paint0_linear_1_290)"/>
<path d="M122 142H93V174H122V142Z" fill="white"/>
<path d="M103.423 189.504C104.522 189.611 105.359 189.952 105.935 190.528C106.511 191.093 106.799 191.819 106.799 192.704C106.799 193.344 106.639 193.925 106.319 194.448C105.999 194.96 105.519 195.371 104.879 195.68C104.25 195.979 103.477 196.128 102.559 196.128C101.759 196.128 100.991 196.011 100.255 195.776C99.5192 195.531 98.9165 195.195 98.4472 194.768L99.1832 193.504C99.5672 193.867 100.058 194.16 100.655 194.384C101.253 194.597 101.887 194.704 102.559 194.704C103.391 194.704 104.037 194.528 104.495 194.176C104.965 193.824 105.199 193.339 105.199 192.72C105.199 192.101 104.97 191.621 104.511 191.28C104.053 190.939 103.359 190.768 102.431 190.768H101.535V189.648L104.351 186.192H98.9592V184.8H106.351V185.888L103.423 189.504ZM116.085 194.608V196H108.037V194.912L112.597 190.512C113.152 189.979 113.525 189.52 113.717 189.136C113.909 188.741 114.005 188.347 114.005 187.952C114.005 187.365 113.797 186.912 113.381 186.592C112.976 186.261 112.389 186.096 111.621 186.096C110.384 186.096 109.429 186.501 108.757 187.312L107.669 186.368C108.107 185.835 108.677 185.419 109.381 185.12C110.096 184.821 110.891 184.672 111.765 184.672C112.939 184.672 113.872 184.955 114.565 185.52C115.259 186.075 115.605 186.832 115.605 187.792C115.605 188.389 115.477 188.955 115.221 189.488C114.965 190.021 114.48 190.629 113.765 191.312L110.341 194.608H116.085Z" fill="white"/>
<path d="M159 110H130V174H159V110Z" fill="#D252E1"/>
<path d="M139.811 189.2C140.547 189.2 141.203 189.339 141.779 189.616C142.366 189.893 142.824 190.293 143.155 190.816C143.486 191.328 143.651 191.92 143.651 192.592C143.651 193.296 143.475 193.915 143.123 194.448C142.782 194.981 142.307 195.397 141.699 195.696C141.102 195.984 140.43 196.128 139.683 196.128C138.179 196.128 137.016 195.643 136.195 194.672C135.384 193.701 134.979 192.325 134.979 190.544C134.979 189.296 135.198 188.235 135.635 187.36C136.083 186.475 136.702 185.808 137.491 185.36C138.291 184.901 139.219 184.672 140.275 184.672C140.819 184.672 141.331 184.731 141.811 184.848C142.291 184.955 142.707 185.115 143.059 185.328L142.451 186.576C141.918 186.224 141.203 186.048 140.307 186.048C139.144 186.048 138.232 186.411 137.571 187.136C136.91 187.851 136.579 188.896 136.579 190.272C136.579 190.443 136.584 190.576 136.595 190.672C136.915 190.192 137.352 189.829 137.907 189.584C138.472 189.328 139.107 189.2 139.811 189.2ZM139.619 194.832C140.355 194.832 140.952 194.635 141.411 194.24C141.87 193.845 142.099 193.317 142.099 192.656C142.099 191.995 141.864 191.472 141.395 191.088C140.936 190.693 140.318 190.496 139.539 190.496C139.038 190.496 138.59 190.592 138.195 190.784C137.811 190.976 137.507 191.237 137.283 191.568C137.07 191.899 136.963 192.267 136.963 192.672C136.963 193.067 137.064 193.429 137.267 193.76C137.48 194.08 137.784 194.341 138.179 194.544C138.584 194.736 139.064 194.832 139.619 194.832ZM154.598 193.248H152.47V196H150.918V193.248H144.694V192.128L150.422 184.8H152.15L146.662 191.872H150.966V189.44H152.47V191.872H154.598V193.248Z" fill="white"/>
<path d="M196 92H167V174H196V92Z" fill="#D252E1"/>
<path d="M179.374 190.128C180.014 190.373 180.504 190.725 180.846 191.184C181.187 191.643 181.358 192.192 181.358 192.832C181.358 193.504 181.176 194.091 180.814 194.592C180.451 195.083 179.934 195.461 179.262 195.728C178.59 195.995 177.8 196.128 176.894 196.128C175.998 196.128 175.214 195.995 174.542 195.728C173.88 195.461 173.368 195.083 173.006 194.592C172.643 194.091 172.462 193.504 172.462 192.832C172.462 192.192 172.627 191.643 172.958 191.184C173.299 190.725 173.79 190.373 174.43 190.128C173.918 189.883 173.528 189.557 173.262 189.152C172.995 188.747 172.862 188.267 172.862 187.712C172.862 187.093 173.027 186.555 173.358 186.096C173.699 185.637 174.174 185.285 174.782 185.04C175.39 184.795 176.094 184.672 176.894 184.672C177.704 184.672 178.414 184.795 179.022 185.04C179.64 185.285 180.115 185.637 180.446 186.096C180.787 186.555 180.958 187.093 180.958 187.712C180.958 188.256 180.819 188.736 180.542 189.152C180.275 189.557 179.886 189.883 179.374 190.128ZM176.894 185.968C176.136 185.968 175.539 186.133 175.102 186.464C174.664 186.784 174.446 187.221 174.446 187.776C174.446 188.331 174.659 188.768 175.086 189.088C175.523 189.408 176.126 189.568 176.894 189.568C177.672 189.568 178.28 189.408 178.718 189.088C179.166 188.768 179.39 188.331 179.39 187.776C179.39 187.221 179.16 186.784 178.702 186.464C178.254 186.133 177.651 185.968 176.894 185.968ZM176.894 194.832C177.779 194.832 178.478 194.651 178.99 194.288C179.502 193.915 179.758 193.413 179.758 192.784C179.758 192.165 179.502 191.68 178.99 191.328C178.478 190.965 177.779 190.784 176.894 190.784C176.008 190.784 175.315 190.965 174.814 191.328C174.312 191.68 174.062 192.165 174.062 192.784C174.062 193.413 174.312 193.915 174.814 194.288C175.315 194.651 176.008 194.832 176.894 194.832ZM190.695 194.608V196H182.647V194.912L187.207 190.512C187.761 189.979 188.135 189.52 188.327 189.136C188.519 188.741 188.615 188.347 188.615 187.952C188.615 187.365 188.407 186.912 187.991 186.592C187.585 186.261 186.999 186.096 186.231 186.096C184.993 186.096 184.039 186.501 183.367 187.312L182.279 186.368C182.716 185.835 183.287 185.419 183.991 185.12C184.705 184.821 185.5 184.672 186.375 184.672C187.548 184.672 188.481 184.955 189.175 185.52C189.868 186.075 190.215 186.832 190.215 187.792C190.215 188.389 190.087 188.955 189.831 189.488C189.575 190.021 189.089 190.629 188.375 191.312L184.951 194.608H190.695Z" fill="white"/>
<path d="M233 78H204V174H233V78Z" fill="white"/>
<path d="M213.025 184.672C214.529 184.672 215.686 185.157 216.497 186.128C217.318 187.099 217.729 188.475 217.729 190.256C217.729 191.504 217.505 192.571 217.057 193.456C216.62 194.331 216.001 194.997 215.201 195.456C214.412 195.904 213.489 196.128 212.433 196.128C211.889 196.128 211.377 196.075 210.897 195.968C210.417 195.851 210.001 195.685 209.649 195.472L210.257 194.224C210.801 194.576 211.521 194.752 212.417 194.752C213.58 194.752 214.486 194.395 215.137 193.68C215.798 192.955 216.129 191.904 216.129 190.528V190.128C215.809 190.608 215.366 190.976 214.801 191.232C214.236 191.477 213.601 191.6 212.897 191.6C212.161 191.6 211.5 191.461 210.913 191.184C210.337 190.907 209.884 190.512 209.553 190C209.233 189.477 209.073 188.88 209.073 188.208C209.073 187.504 209.244 186.885 209.585 186.352C209.937 185.819 210.412 185.408 211.009 185.12C211.606 184.821 212.278 184.672 213.025 184.672ZM213.169 190.304C213.67 190.304 214.118 190.208 214.513 190.016C214.908 189.824 215.212 189.563 215.425 189.232C215.649 188.901 215.761 188.533 215.761 188.128C215.761 187.733 215.654 187.376 215.441 187.056C215.238 186.725 214.934 186.464 214.529 186.272C214.134 186.069 213.654 185.968 213.089 185.968C212.353 185.968 211.756 186.165 211.297 186.56C210.849 186.955 210.625 187.483 210.625 188.144C210.625 188.805 210.854 189.333 211.313 189.728C211.772 190.112 212.39 190.304 213.169 190.304ZM224.1 189.2C224.836 189.2 225.492 189.339 226.068 189.616C226.655 189.893 227.113 190.293 227.444 190.816C227.775 191.328 227.94 191.92 227.94 192.592C227.94 193.296 227.764 193.915 227.412 194.448C227.071 194.981 226.596 195.397 225.988 195.696C225.391 195.984 224.719 196.128 223.972 196.128C222.468 196.128 221.305 195.643 220.484 194.672C219.673 193.701 219.268 192.325 219.268 190.544C219.268 189.296 219.487 188.235 219.924 187.36C220.372 186.475 220.991 185.808 221.78 185.36C222.58 184.901 223.508 184.672 224.564 184.672C225.108 184.672 225.62 184.731 226.1 184.848C226.58 184.955 226.996 185.115 227.348 185.328L226.74 186.576C226.207 186.224 225.492 186.048 224.596 186.048C223.433 186.048 222.521 186.411 221.86 187.136C221.199 187.851 220.868 188.896 220.868 190.272C220.868 190.443 220.873 190.576 220.884 190.672C221.204 190.192 221.641 189.829 222.196 189.584C222.761 189.328 223.396 189.2 224.1 189.2ZM223.908 194.832C224.644 194.832 225.241 194.635 225.7 194.24C226.159 193.845 226.388 193.317 226.388 192.656C226.388 191.995 226.153 191.472 225.684 191.088C225.225 190.693 224.607 190.496 223.828 190.496C223.327 190.496 222.879 190.592 222.484 190.784C222.1 190.976 221.796 191.237 221.572 191.568C221.359 191.899 221.252 192.267 221.252 192.672C221.252 193.067 221.353 193.429 221.556 193.76C221.769 194.08 222.073 194.341 222.468 194.544C222.873 194.736 223.353 194.832 223.908 194.832Z" fill="white"/>
<path d="M270 86H241V174H270V86Z" fill="white"/>
<path d="M252.819 190.128C253.459 190.373 253.95 190.725 254.291 191.184C254.632 191.643 254.803 192.192 254.803 192.832C254.803 193.504 254.622 194.091 254.259 194.592C253.896 195.083 253.379 195.461 252.707 195.728C252.035 195.995 251.246 196.128 250.339 196.128C249.443 196.128 248.659 195.995 247.987 195.728C247.326 195.461 246.814 195.083 246.451 194.592C246.088 194.091 245.907 193.504 245.907 192.832C245.907 192.192 246.072 191.643 246.403 191.184C246.744 190.725 247.235 190.373 247.875 190.128C247.363 189.883 246.974 189.557 246.707 189.152C246.44 188.747 246.307 188.267 246.307 187.712C246.307 187.093 246.472 186.555 246.803 186.096C247.144 185.637 247.619 185.285 248.227 185.04C248.835 184.795 249.539 184.672 250.339 184.672C251.15 184.672 251.859 184.795 252.467 185.04C253.086 185.285 253.56 185.637 253.891 186.096C254.232 186.555 254.403 187.093 254.403 187.712C254.403 188.256 254.264 188.736 253.987 189.152C253.72 189.557 253.331 189.883 252.819 190.128ZM250.339 185.968C249.582 185.968 248.984 186.133 248.547 186.464C248.11 186.784 247.891 187.221 247.891 187.776C247.891 188.331 248.104 188.768 248.531 189.088C248.968 189.408 249.571 189.568 250.339 189.568C251.118 189.568 251.726 189.408 252.163 189.088C252.611 188.768 252.835 188.331 252.835 187.776C252.835 187.221 252.606 186.784 252.147 186.464C251.699 186.133 251.096 185.968 250.339 185.968ZM250.339 194.832C251.224 194.832 251.923 194.651 252.435 194.288C252.947 193.915 253.203 193.413 253.203 192.784C253.203 192.165 252.947 191.68 252.435 191.328C251.923 190.965 251.224 190.784 250.339 190.784C249.454 190.784 248.76 190.965 248.259 191.328C247.758 191.68 247.507 192.165 247.507 192.784C247.507 193.413 247.758 193.915 248.259 194.288C248.76 194.651 249.454 194.832 250.339 194.832ZM263.116 190.128C263.756 190.373 264.247 190.725 264.588 191.184C264.929 191.643 265.1 192.192 265.1 192.832C265.1 193.504 264.919 194.091 264.556 194.592C264.193 195.083 263.676 195.461 263.004 195.728C262.332 195.995 261.543 196.128 260.636 196.128C259.74 196.128 258.956 195.995 258.284 195.728C257.623 195.461 257.111 195.083 256.748 194.592C256.385 194.091 256.204 193.504 256.204 192.832C256.204 192.192 256.369 191.643 256.7 191.184C257.041 190.725 257.532 190.373 258.172 190.128C257.66 189.883 257.271 189.557 257.004 189.152C256.737 188.747 256.604 188.267 256.604 187.712C256.604 187.093 256.769 186.555 257.1 186.096C257.441 185.637 257.916 185.285 258.524 185.04C259.132 184.795 259.836 184.672 260.636 184.672C261.447 184.672 262.156 184.795 262.764 185.04C263.383 185.285 263.857 185.637 264.188 186.096C264.529 186.555 264.7 187.093 264.7 187.712C264.7 188.256 264.561 188.736 264.284 189.152C264.017 189.557 263.628 189.883 263.116 190.128ZM260.636 185.968C259.879 185.968 259.281 186.133 258.844 186.464C258.407 186.784 258.188 187.221 258.188 187.776C258.188 188.331 258.401 188.768 258.828 189.088C259.265 189.408 259.868 189.568 260.636 189.568C261.415 189.568 262.023 189.408 262.46 189.088C262.908 188.768 263.132 188.331 263.132 187.776C263.132 187.221 262.903 186.784 262.444 186.464C261.996 186.133 261.393 185.968 260.636 185.968ZM260.636 194.832C261.521 194.832 262.22 194.651 262.732 194.288C263.244 193.915 263.5 193.413 263.5 192.784C263.5 192.165 263.244 191.68 262.732 191.328C262.22 190.965 261.521 190.784 260.636 190.784C259.751 190.784 259.057 190.965 258.556 191.328C258.055 191.68 257.804 192.165 257.804 192.784C257.804 193.413 258.055 193.915 258.556 194.288C259.057 194.651 259.751 194.832 260.636 194.832Z" fill="white"/>
<path d="M307 66H278V174H307V66Z" fill="white"/>
<path d="M283.107 184.8V196H281.523V186.192H278.995V184.8H283.107ZM290.133 196.128C289.248 196.128 288.458 195.904 287.765 195.456C287.082 194.997 286.544 194.336 286.149 193.472C285.754 192.608 285.557 191.584 285.557 190.4C285.557 189.216 285.754 188.192 286.149 187.328C286.544 186.464 287.082 185.808 287.765 185.36C288.458 184.901 289.248 184.672 290.133 184.672C291.008 184.672 291.786 184.901 292.469 185.36C293.162 185.808 293.706 186.464 294.101 187.328C294.496 188.192 294.693 189.216 294.693 190.4C294.693 191.584 294.496 192.608 294.101 193.472C293.706 194.336 293.162 194.997 292.469 195.456C291.786 195.904 291.008 196.128 290.133 196.128ZM290.133 194.704C291.029 194.704 291.744 194.336 292.277 193.6C292.821 192.864 293.093 191.797 293.093 190.4C293.093 189.003 292.821 187.936 292.277 187.2C291.744 186.464 291.029 186.096 290.133 186.096C289.226 186.096 288.501 186.464 287.957 187.2C287.424 187.936 287.157 189.003 287.157 190.4C287.157 191.797 287.424 192.864 287.957 193.6C288.501 194.336 289.226 194.704 290.133 194.704ZM300.805 196.128C299.92 196.128 299.13 195.904 298.437 195.456C297.754 194.997 297.216 194.336 296.821 193.472C296.426 192.608 296.229 191.584 296.229 190.4C296.229 189.216 296.426 188.192 296.821 187.328C297.216 186.464 297.754 185.808 298.437 185.36C299.13 184.901 299.92 184.672 300.805 184.672C301.68 184.672 302.458 184.901 303.141 185.36C303.834 185.808 304.378 186.464 304.773 187.328C305.168 188.192 305.365 189.216 305.365 190.4C305.365 191.584 305.168 192.608 304.773 193.472C304.378 194.336 303.834 194.997 303.141 195.456C302.458 195.904 301.68 196.128 300.805 196.128ZM300.805 194.704C301.701 194.704 302.416 194.336 302.949 193.6C303.493 192.864 303.765 191.797 303.765 190.4C303.765 189.003 303.493 187.936 302.949 187.2C302.416 186.464 301.701 186.096 300.805 186.096C299.898 186.096 299.173 186.464 298.629 187.2C298.096 187.936 297.829 189.003 297.829 190.4C297.829 191.797 298.096 192.864 298.629 193.6C299.173 194.336 299.898 194.704 300.805 194.704Z" fill="white"/>
<path d="M20 1H380V-1H20V1ZM399 20V200H401V20H399ZM380 219H20V221H380V219ZM1 200V20H-1V200H1ZM20 219C9.50659 219 1 210.493 1 200H-1C-1 211.598 8.40203 221 20 221V219ZM399 200C399 210.493 390.493 219 380 219V221C391.598 221 401 211.598 401 200H399ZM380 1C390.493 1 399 9.50659 399 20H401C401 8.40202 391.598 -1 380 -1V1ZM20 -1C8.40202 -1 -1 8.40201 -1 20H1C1 9.50658 9.50659 1 20 1V-1Z" fill="#141414"/>
<path d="M134.388 42L138.816 30.408H141.48L145.89 42H143.37L142.272 39.21H138.006L136.926 42H134.388ZM138.366 37.338H141.912L140.13 32.676L138.366 37.338ZM147.58 42V30.408H153.142C154.474 30.408 155.452 30.762 156.076 31.47C156.7 32.166 157.012 33.108 157.012 34.296C157.012 35.076 156.808 35.748 156.4 36.312C156.004 36.876 155.44 37.284 154.708 37.536C154.9 37.692 155.05 37.86 155.158 38.04C155.278 38.22 155.398 38.46 155.518 38.76L156.922 42H154.402L153.034 38.886C152.914 38.622 152.782 38.436 152.638 38.328C152.494 38.22 152.254 38.166 151.918 38.166H150.01V42H147.58ZM150.01 36.15H152.512C153.148 36.15 153.646 36.012 154.006 35.736C154.366 35.448 154.546 34.968 154.546 34.296C154.546 33.648 154.39 33.174 154.078 32.874C153.766 32.574 153.292 32.424 152.656 32.424H150.01V36.15ZM158.707 42V30.408H164.269C165.601 30.408 166.579 30.762 167.203 31.47C167.827 32.166 168.139 33.108 168.139 34.296C168.139 35.076 167.935 35.748 167.527 36.312C167.131 36.876 166.567 37.284 165.835 37.536C166.027 37.692 166.177 37.86 166.285 38.04C166.405 38.22 166.525 38.46 166.645 38.76L168.049 42H165.529L164.161 38.886C164.041 38.622 163.909 38.436 163.765 38.328C163.621 38.22 163.381 38.166 163.045 38.166H161.137V42H158.707ZM161.137 36.15H163.639C164.275 36.15 164.773 36.012 165.133 35.736C165.493 35.448 165.673 34.968 165.673 34.296C165.673 33.648 165.517 33.174 165.205 32.874C164.893 32.574 164.419 32.424 163.783 32.424H161.137V36.15ZM168.665 42L173.093 30.408H175.757L180.167 42H177.647L176.549 39.21H172.283L171.203 42H168.665ZM172.643 37.338H176.189L174.407 32.676L172.643 37.338ZM183.053 42V37.716L178.895 30.408H181.433L184.277 35.646L187.121 30.408H189.641L185.483 37.716V42H183.053ZM198.887 42.18C198.143 42.18 197.447 42.126 196.799 42.018C196.163 41.91 195.611 41.754 195.143 41.55V39.408C195.671 39.624 196.241 39.798 196.853 39.93C197.465 40.062 198.065 40.128 198.653 40.128C199.493 40.128 200.111 40.05 200.507 39.894C200.903 39.738 201.101 39.384 201.101 38.832C201.101 38.484 201.017 38.208 200.849 38.004C200.681 37.8 200.387 37.62 199.967 37.464C199.559 37.296 198.977 37.11 198.221 36.906C197.009 36.57 196.157 36.15 195.665 35.646C195.173 35.142 194.927 34.446 194.927 33.558C194.927 32.49 195.317 31.668 196.097 31.092C196.877 30.516 198.011 30.228 199.499 30.228C200.195 30.228 200.843 30.276 201.443 30.372C202.043 30.468 202.529 30.582 202.901 30.714V32.856C201.917 32.484 200.891 32.298 199.823 32.298C199.067 32.298 198.473 32.382 198.041 32.55C197.609 32.706 197.393 33.042 197.393 33.558C197.393 33.858 197.471 34.098 197.627 34.278C197.783 34.458 198.047 34.62 198.419 34.764C198.803 34.908 199.337 35.07 200.021 35.25C200.969 35.502 201.701 35.802 202.217 36.15C202.733 36.498 203.087 36.894 203.279 37.338C203.483 37.782 203.585 38.28 203.585 38.832C203.585 39.84 203.201 40.65 202.433 41.262C201.665 41.874 200.483 42.18 198.887 42.18ZM210.545 42.18C206.789 42.18 204.911 40.206 204.911 36.258C204.911 34.134 205.385 32.598 206.333 31.65C207.281 30.702 208.685 30.228 210.545 30.228C212.405 30.228 213.809 30.702 214.757 31.65C215.705 32.598 216.179 34.134 216.179 36.258C216.179 40.206 214.301 42.18 210.545 42.18ZM210.545 40.11C211.637 40.11 212.435 39.798 212.939 39.174C213.455 38.538 213.713 37.566 213.713 36.258C213.713 34.806 213.455 33.786 212.939 33.198C212.435 32.598 211.637 32.298 210.545 32.298C209.453 32.298 208.649 32.598 208.133 33.198C207.629 33.786 207.377 34.806 207.377 36.258C207.377 37.566 207.629 38.538 208.133 39.174C208.649 39.798 209.453 40.11 210.545 40.11ZM217.875 42V30.408H223.437C224.769 30.408 225.747 30.762 226.371 31.47C226.995 32.166 227.307 33.108 227.307 34.296C227.307 35.076 227.103 35.748 226.695 36.312C226.299 36.876 225.735 37.284 225.003 37.536C225.195 37.692 225.345 37.86 225.453 38.04C225.573 38.22 225.693 38.46 225.813 38.76L227.217 42H224.697L223.329 38.886C223.209 38.622 223.077 38.436 222.933 38.328C222.789 38.22 222.549 38.166 222.213 38.166H220.305V42H217.875ZM220.305 36.15H222.807C223.443 36.15 223.941 36.012 224.301 35.736C224.661 35.448 224.841 34.968 224.841 34.296C224.841 33.648 224.685 33.174 224.373 32.874C224.061 32.574 223.587 32.424 222.951 32.424H220.305V36.15ZM231.846 42V32.28H228.282V30.408H237.822V32.28H234.276V42H231.846ZM239.162 42V30.408H241.592V42H239.162ZM243.644 42V30.408H245.75L251.24 38.13V30.408H253.67V42H251.564L246.074 34.278V42H243.644ZM261.3 42.18C259.356 42.18 257.88 41.67 256.872 40.65C255.864 39.63 255.36 38.214 255.36 36.402C255.36 34.482 255.87 32.976 256.89 31.884C257.91 30.78 259.428 30.228 261.444 30.228C262.14 30.228 262.77 30.27 263.334 30.354C263.898 30.426 264.432 30.546 264.936 30.714V32.802C264.432 32.622 263.898 32.496 263.334 32.424C262.782 32.34 262.212 32.298 261.624 32.298C260.244 32.298 259.266 32.64 258.69 33.324C258.114 33.996 257.826 35.022 257.826 36.402C257.826 38.886 258.996 40.128 261.336 40.128C261.744 40.128 262.14 40.098 262.524 40.038C262.92 39.966 263.268 39.876 263.568 39.768V37.068H260.868V35.52H265.62V41.19C265.224 41.442 264.672 41.67 263.964 41.874C263.256 42.078 262.368 42.18 261.3 42.18Z" fill="black"/>
</g>
<defs>
<linearGradient id="paint0_linear_1_290" x1="479" y1="-48" x2="-80.5" y2="263.5" gradientUnits="userSpaceOnUse">
<stop stop-color="#82CEFF"/>
<stop offset="1" stop-color="#FF6B9B"/>
</linearGradient>
<clipPath id="clip0_1_290">
<rect width="400" height="220" fill="white"/>
</clipPath>
</defs>
</svg>
