<svg width="400" height="220" viewBox="0 0 400 220" fill="none" xmlns="http://www.w3.org/2000/svg">
<g clip-path="url(#clip0_1_231)">
<path d="M0 20C0 8.9543 8.95431 0 20 0H380C391.046 0 400 8.95431 400 20V200C400 211.046 391.046 220 380 220H20C8.95431 220 0 211.046 0 200V20Z" fill="white"/>
<path d="M201.529 80.8V92H199.449V82.544H197.081V80.8H201.529Z" fill="#3D3D3D"/>
<path d="M219 86C219 75.5066 210.493 67 200 67C189.507 67 181 75.5066 181 86C181 96.4934 189.507 105 200 105C210.493 105 219 96.4934 219 86Z" stroke="#0032FF" stroke-width="2"/>
<path d="M145.529 120.8V132H143.449V122.544H141.081V120.8H145.529Z" fill="#3D3D3D"/>
<path d="M163 126C163 115.507 154.493 107 144 107C133.507 107 125 115.507 125 126C125 136.493 133.507 145 144 145C154.493 145 163 136.493 163 126Z" stroke="#0032FF" stroke-width="2"/>
<path d="M260.16 130.24V132H251.904V130.608L256.352 126.384C256.853 125.904 257.189 125.488 257.36 125.136C257.541 124.773 257.632 124.416 257.632 124.064C257.632 123.541 257.456 123.141 257.104 122.864C256.752 122.587 256.234 122.448 255.552 122.448C254.41 122.448 253.536 122.837 252.928 123.616L251.472 122.496C251.909 121.909 252.496 121.456 253.232 121.136C253.978 120.805 254.81 120.64 255.728 120.64C256.944 120.64 257.914 120.928 258.64 121.504C259.365 122.08 259.728 122.864 259.728 123.856C259.728 124.464 259.6 125.035 259.344 125.568C259.088 126.101 258.597 126.709 257.872 127.392L254.88 130.24H260.16Z" fill="#3D3D3D"/>
<path d="M275 126C275 115.507 266.493 107 256 107C245.507 107 237 115.507 237 126C237 136.493 245.507 145 256 145C266.493 145 275 136.493 275 126Z" stroke="#0032FF" stroke-width="2"/>
<path d="M116.816 173.424C117.85 173.552 118.64 173.904 119.184 174.48C119.728 175.056 120 175.776 120 176.64C120 177.291 119.834 177.883 119.504 178.416C119.173 178.949 118.672 179.376 118 179.696C117.338 180.005 116.528 180.16 115.568 180.16C114.768 180.16 113.994 180.048 113.248 179.824C112.512 179.589 111.882 179.269 111.36 178.864L112.256 177.248C112.661 177.589 113.152 177.861 113.728 178.064C114.314 178.256 114.917 178.352 115.536 178.352C116.272 178.352 116.848 178.203 117.264 177.904C117.69 177.595 117.904 177.179 117.904 176.656C117.904 176.133 117.701 175.728 117.296 175.44C116.901 175.141 116.293 174.992 115.472 174.992H114.448V173.568L116.992 170.544H111.904V168.8H119.536V170.192L116.816 173.424Z" fill="#3D3D3D"/>
<path d="M135 174C135 163.507 126.493 155 116 155C105.507 155 97 163.507 97 174C97 184.493 105.507 193 116 193C126.493 193 135 184.493 135 174Z" stroke="#0032FF" stroke-width="2"/>
<path d="M171.536 173.136C173.115 173.136 174.283 173.445 175.04 174.064C175.797 174.672 176.176 175.504 176.176 176.56C176.176 177.232 176.011 177.84 175.68 178.384C175.349 178.928 174.853 179.36 174.192 179.68C173.531 180 172.715 180.16 171.744 180.16C170.944 180.16 170.171 180.048 169.424 179.824C168.677 179.589 168.048 179.269 167.536 178.864L168.416 177.248C168.832 177.589 169.328 177.861 169.904 178.064C170.491 178.256 171.093 178.352 171.712 178.352C172.448 178.352 173.024 178.203 173.44 177.904C173.867 177.595 174.08 177.173 174.08 176.64C174.08 176.064 173.851 175.632 173.392 175.344C172.944 175.045 172.171 174.896 171.072 174.896H168.368L168.944 168.8H175.52V170.544H170.704L170.464 173.136H171.536Z" fill="#3D3D3D"/>
<path d="M191 174C191 163.507 182.493 155 172 155C161.507 155 153 163.507 153 174C153 184.493 161.507 193 172 193C182.493 193 191 184.493 191 174Z" stroke="#0032FF" stroke-width="2"/>
<path d="M230.749 174.112C231.336 174.379 231.784 174.741 232.093 175.2C232.413 175.648 232.573 176.176 232.573 176.784C232.573 177.467 232.381 178.064 231.997 178.576C231.624 179.088 231.091 179.483 230.397 179.76C229.704 180.027 228.899 180.16 227.981 180.16C227.064 180.16 226.259 180.027 225.565 179.76C224.883 179.483 224.355 179.088 223.981 178.576C223.608 178.064 223.421 177.467 223.421 176.784C223.421 176.176 223.576 175.648 223.885 175.2C224.195 174.741 224.637 174.379 225.213 174.112C224.765 173.867 224.419 173.547 224.173 173.152C223.939 172.747 223.821 172.283 223.821 171.76C223.821 171.131 223.992 170.581 224.333 170.112C224.685 169.643 225.176 169.28 225.805 169.024C226.435 168.768 227.16 168.64 227.981 168.64C228.813 168.64 229.544 168.768 230.173 169.024C230.803 169.28 231.293 169.643 231.645 170.112C231.997 170.581 232.173 171.131 232.173 171.76C232.173 172.283 232.051 172.741 231.805 173.136C231.56 173.531 231.208 173.856 230.749 174.112ZM227.981 170.272C227.331 170.272 226.813 170.411 226.429 170.688C226.056 170.965 225.869 171.355 225.869 171.856C225.869 172.336 226.056 172.72 226.429 173.008C226.813 173.285 227.331 173.424 227.981 173.424C228.643 173.424 229.165 173.285 229.549 173.008C229.933 172.72 230.125 172.336 230.125 171.856C230.125 171.355 229.928 170.965 229.533 170.688C229.149 170.411 228.632 170.272 227.981 170.272ZM227.981 178.528C228.749 178.528 229.357 178.368 229.805 178.048C230.253 177.728 230.477 177.285 230.477 176.72C230.477 176.165 230.253 175.728 229.805 175.408C229.357 175.088 228.749 174.928 227.981 174.928C227.213 174.928 226.611 175.088 226.173 175.408C225.736 175.728 225.517 176.165 225.517 176.72C225.517 177.285 225.736 177.728 226.173 178.048C226.611 178.368 227.213 178.528 227.981 178.528Z" fill="#3D3D3D"/>
<path d="M247 174C247 163.507 238.493 155 228 155C217.507 155 209 163.507 209 174C209 184.493 217.507 193 228 193C238.493 193 247 184.493 247 174Z" stroke="#0032FF" stroke-width="2"/>
<path d="M280.873 168.8V180H278.793V170.544H276.425V168.8H280.873ZM287.863 173.424C288.897 173.552 289.687 173.904 290.231 174.48C290.775 175.056 291.047 175.776 291.047 176.64C291.047 177.291 290.881 177.883 290.551 178.416C290.22 178.949 289.719 179.376 289.047 179.696C288.385 180.005 287.575 180.16 286.615 180.16C285.815 180.16 285.041 180.048 284.295 179.824C283.559 179.589 282.929 179.269 282.407 178.864L283.303 177.248C283.708 177.589 284.199 177.861 284.775 178.064C285.361 178.256 285.964 178.352 286.583 178.352C287.319 178.352 287.895 178.203 288.311 177.904C288.737 177.595 288.951 177.179 288.951 176.656C288.951 176.133 288.748 175.728 288.343 175.44C287.948 175.141 287.34 174.992 286.519 174.992H285.495V173.568L288.039 170.544H282.951V168.8H290.583V170.192L287.863 173.424Z" fill="#3D3D3D"/>
<path d="M303 174C303 163.507 294.493 155 284 155C273.507 155 265 163.507 265 174C265 184.493 273.507 193 284 193C294.493 193 303 184.493 303 174Z" stroke="#0032FF" stroke-width="2"/>
<path d="M20 1H380V-1H20V1ZM399 20V200H401V20H399ZM380 219H20V221H380V219ZM1 200V20H-1V200H1ZM20 219C9.50659 219 1 210.493 1 200H-1C-1 211.598 8.40203 221 20 221V219ZM399 200C399 210.493 390.493 219 380 219V221C391.598 221 401 211.598 401 200H399ZM380 1C390.493 1 399 9.50659 399 20H401C401 8.40202 391.598 -1 380 -1V1ZM20 -1C8.40202 -1 -1 8.40201 -1 20H1C1 9.50658 9.50659 1 20 1V-1Z" fill="#141414"/>
<path d="M111.465 43V31.408H119.619V33.298H113.895V36.268H118.953V38.14H113.895V43H111.465ZM120.958 43V31.408H123.388V43H120.958ZM125.44 43V31.408H131.308C132.472 31.408 133.336 31.684 133.9 32.236C134.476 32.776 134.764 33.544 134.764 34.54C134.764 35.164 134.644 35.686 134.404 36.106C134.164 36.514 133.84 36.832 133.432 37.06C133.972 37.228 134.398 37.51 134.71 37.906C135.034 38.29 135.196 38.86 135.196 39.616C135.196 40.732 134.878 41.578 134.242 42.154C133.618 42.718 132.712 43 131.524 43H125.44ZM127.87 36.214H130.858C131.446 36.214 131.866 36.088 132.118 35.836C132.37 35.572 132.496 35.206 132.496 34.738C132.496 34.222 132.364 33.838 132.1 33.586C131.848 33.334 131.374 33.208 130.678 33.208H127.87V36.214ZM127.87 41.218H130.948C131.56 41.218 132.01 41.092 132.298 40.84C132.586 40.588 132.73 40.144 132.73 39.508C132.73 38.992 132.586 38.608 132.298 38.356C132.022 38.104 131.518 37.978 130.786 37.978H127.87V41.218ZM142.157 43.18C138.401 43.18 136.523 41.206 136.523 37.258C136.523 35.134 136.997 33.598 137.945 32.65C138.893 31.702 140.297 31.228 142.157 31.228C144.017 31.228 145.421 31.702 146.369 32.65C147.317 33.598 147.791 35.134 147.791 37.258C147.791 41.206 145.913 43.18 142.157 43.18ZM142.157 41.11C143.249 41.11 144.047 40.798 144.551 40.174C145.067 39.538 145.325 38.566 145.325 37.258C145.325 35.806 145.067 34.786 144.551 34.198C144.047 33.598 143.249 33.298 142.157 33.298C141.065 33.298 140.261 33.598 139.745 34.198C139.241 34.786 138.989 35.806 138.989 37.258C138.989 38.566 139.241 39.538 139.745 40.174C140.261 40.798 141.065 41.11 142.157 41.11ZM149.487 43V31.408H151.593L157.083 39.13V31.408H159.513V43H157.407L151.917 35.278V43H149.487ZM161.203 43L165.631 31.408H168.295L172.705 43H170.185L169.087 40.21H164.821L163.741 43H161.203ZM165.181 38.338H168.727L166.945 33.676L165.181 38.338ZM179.063 43.18C177.119 43.18 175.631 42.658 174.599 41.614C173.567 40.558 173.051 39.124 173.051 37.312C173.051 35.392 173.549 33.898 174.545 32.83C175.553 31.762 177.053 31.228 179.045 31.228C179.741 31.228 180.365 31.282 180.917 31.39C181.481 31.486 182.009 31.624 182.501 31.804V33.928C181.481 33.508 180.389 33.298 179.225 33.298C177.905 33.298 176.957 33.628 176.381 34.288C175.805 34.948 175.517 35.956 175.517 37.312C175.517 39.856 176.765 41.128 179.261 41.128C179.825 41.128 180.383 41.08 180.935 40.984C181.487 40.876 182.015 40.72 182.519 40.516V42.658C182.027 42.814 181.499 42.94 180.935 43.036C180.383 43.132 179.759 43.18 179.063 43.18ZM189.504 43.18C187.56 43.18 186.072 42.658 185.04 41.614C184.008 40.558 183.492 39.124 183.492 37.312C183.492 35.392 183.99 33.898 184.986 32.83C185.994 31.762 187.494 31.228 189.486 31.228C190.182 31.228 190.806 31.282 191.358 31.39C191.922 31.486 192.45 31.624 192.942 31.804V33.928C191.922 33.508 190.83 33.298 189.666 33.298C188.346 33.298 187.398 33.628 186.822 34.288C186.246 34.948 185.958 35.956 185.958 37.312C185.958 39.856 187.206 41.128 189.702 41.128C190.266 41.128 190.824 41.08 191.376 40.984C191.928 40.876 192.456 40.72 192.96 40.516V42.658C192.468 42.814 191.94 42.94 191.376 43.036C190.824 43.132 190.2 43.18 189.504 43.18ZM194.645 43V31.408H197.075V43H194.645ZM206.683 43.18C205.939 43.18 205.243 43.126 204.595 43.018C203.959 42.91 203.407 42.754 202.939 42.55V40.408C203.467 40.624 204.037 40.798 204.649 40.93C205.261 41.062 205.861 41.128 206.449 41.128C207.289 41.128 207.907 41.05 208.303 40.894C208.699 40.738 208.897 40.384 208.897 39.832C208.897 39.484 208.813 39.208 208.645 39.004C208.477 38.8 208.183 38.62 207.763 38.464C207.355 38.296 206.773 38.11 206.017 37.906C204.805 37.57 203.953 37.15 203.461 36.646C202.969 36.142 202.723 35.446 202.723 34.558C202.723 33.49 203.113 32.668 203.893 32.092C204.673 31.516 205.807 31.228 207.295 31.228C207.991 31.228 208.639 31.276 209.239 31.372C209.839 31.468 210.325 31.582 210.697 31.714V33.856C209.713 33.484 208.687 33.298 207.619 33.298C206.863 33.298 206.269 33.382 205.837 33.55C205.405 33.706 205.189 34.042 205.189 34.558C205.189 34.858 205.267 35.098 205.423 35.278C205.579 35.458 205.843 35.62 206.215 35.764C206.599 35.908 207.133 36.07 207.817 36.25C208.765 36.502 209.497 36.802 210.013 37.15C210.529 37.498 210.883 37.894 211.075 38.338C211.279 38.782 211.381 39.28 211.381 39.832C211.381 40.84 210.997 41.65 210.229 42.262C209.461 42.874 208.279 43.18 206.683 43.18ZM213.067 43V31.408H221.383V33.298H215.497V36.268H220.717V38.14H215.497V41.128H221.383V43H213.067ZM229.805 46.096C228.845 46.096 228.137 45.838 227.681 45.322C227.225 44.806 226.985 44.068 226.961 43.108C224.009 42.712 222.533 40.762 222.533 37.258C222.533 35.134 223.007 33.598 223.955 32.65C224.903 31.702 226.307 31.228 228.167 31.228C230.027 31.228 231.431 31.702 232.379 32.65C233.327 33.598 233.801 35.134 233.801 37.258C233.801 40.894 232.211 42.856 229.031 43.144C229.055 43.624 229.169 43.948 229.373 44.116C229.589 44.284 229.919 44.368 230.363 44.368C230.567 44.368 230.783 44.35 231.011 44.314C231.239 44.278 231.449 44.23 231.641 44.17V45.862C231.437 45.922 231.167 45.976 230.831 46.024C230.495 46.072 230.153 46.096 229.805 46.096ZM228.167 41.11C229.259 41.11 230.057 40.798 230.561 40.174C231.077 39.538 231.335 38.566 231.335 37.258C231.335 35.806 231.077 34.786 230.561 34.198C230.057 33.598 229.259 33.298 228.167 33.298C227.075 33.298 226.271 33.598 225.755 34.198C225.251 34.786 224.999 35.806 224.999 37.258C224.999 38.566 225.251 39.538 225.755 40.174C226.271 40.798 227.075 41.11 228.167 41.11ZM240.591 43.18C238.995 43.18 237.729 42.796 236.793 42.028C235.869 41.248 235.407 40.12 235.407 38.644V31.408H237.837V38.464C237.837 39.352 238.077 40.018 238.557 40.462C239.037 40.894 239.715 41.11 240.591 41.11C241.467 41.11 242.139 40.894 242.607 40.462C243.087 40.018 243.327 39.352 243.327 38.464V31.408H245.757V38.644C245.757 40.12 245.295 41.248 244.371 42.028C243.447 42.796 242.187 43.18 240.591 43.18ZM247.714 43V31.408H256.03V33.298H250.144V36.268H255.364V38.14H250.144V41.128H256.03V43H247.714ZM257.715 43V31.408H259.821L265.311 39.13V31.408H267.741V43H265.635L260.145 35.278V43H257.715ZM275.444 43.18C273.5 43.18 272.012 42.658 270.98 41.614C269.948 40.558 269.432 39.124 269.432 37.312C269.432 35.392 269.93 33.898 270.926 32.83C271.934 31.762 273.434 31.228 275.426 31.228C276.122 31.228 276.746 31.282 277.298 31.39C277.862 31.486 278.39 31.624 278.882 31.804V33.928C277.862 33.508 276.77 33.298 275.606 33.298C274.286 33.298 273.338 33.628 272.762 34.288C272.186 34.948 271.898 35.956 271.898 37.312C271.898 39.856 273.146 41.128 275.642 41.128C276.206 41.128 276.764 41.08 277.316 40.984C277.868 40.876 278.396 40.72 278.9 40.516V42.658C278.408 42.814 277.88 42.94 277.316 43.036C276.764 43.132 276.14 43.18 275.444 43.18ZM280.585 43V31.408H288.901V33.298H283.015V36.268H288.235V38.14H283.015V41.128H288.901V43H280.585Z" fill="black"/>
</g>
<defs>
<clipPath id="clip0_1_231">
<rect width="400" height="220" fill="white"/>
</clipPath>
</defs>
</svg>
