<svg width="400" height="220" viewBox="0 0 400 220" fill="none" xmlns="http://www.w3.org/2000/svg">
<g clip-path="url(#clip0_1_55)">
<path d="M0 20C0 8.9543 8.95431 0 20 0H380C391.046 0 400 8.95431 400 20V200C400 211.046 391.046 220 380 220H20C8.95431 220 0 211.046 0 200V20Z" fill="white"/>
<path d="M92.9794 114.8V126H90.8994V121.2H85.1074V126H83.0274V114.8H85.1074V119.424H90.8994V114.8H92.9794Z" fill="#3D3D3D"/>
<path d="M107 120C107 109.507 98.4934 101 88 101C77.5066 101 69 109.507 69 120C69 130.493 77.5066 139 88 139C98.4934 139 107 130.493 107 120Z" stroke="#0032FF" stroke-width="2"/>
<path d="M148.545 124.256V126H140.145V114.8H148.321V116.544H142.225V119.456H147.633V121.168H142.225V124.256H148.545Z" fill="#3D3D3D"/>
<path d="M163 120C163 109.507 154.493 101 144 101C133.507 101 125 109.507 125 120C125 130.493 133.507 139 144 139C154.493 139 163 130.493 163 120Z" stroke="#0032FF" stroke-width="2"/>
<path d="M196.715 114.8H198.795V124.24H204.651V126H196.715V114.8Z" fill="#3D3D3D"/>
<path d="M219 120C219 109.507 210.493 101 200 101C189.507 101 181 109.507 181 120C181 130.493 189.507 139 200 139C210.493 139 219 130.493 219 120Z" stroke="#0032FF" stroke-width="2"/>
<path d="M252.715 114.8H254.795V124.24H260.651V126H252.715V114.8Z" fill="#3D3D3D"/>
<path d="M275 120C275 109.507 266.493 101 256 101C245.507 101 237 109.507 237 120C237 130.493 245.507 139 256 139C266.493 139 275 130.493 275 120Z" stroke="#0032FF" stroke-width="2"/>
<path d="M312.002 126.16C310.86 126.16 309.831 125.915 308.914 125.424C307.996 124.923 307.276 124.235 306.754 123.36C306.231 122.475 305.97 121.488 305.97 120.4C305.97 119.312 306.231 118.331 306.754 117.456C307.276 116.571 307.996 115.883 308.914 115.392C309.831 114.891 310.86 114.64 312.002 114.64C313.143 114.64 314.172 114.891 315.09 115.392C316.007 115.883 316.727 116.565 317.25 117.44C317.772 118.315 318.034 119.301 318.034 120.4C318.034 121.499 317.772 122.485 317.25 123.36C316.727 124.235 316.007 124.923 315.09 125.424C314.172 125.915 313.143 126.16 312.002 126.16ZM312.002 124.336C312.748 124.336 313.42 124.171 314.018 123.84C314.615 123.499 315.084 123.029 315.426 122.432C315.767 121.824 315.938 121.147 315.938 120.4C315.938 119.653 315.767 118.981 315.426 118.384C315.084 117.776 314.615 117.307 314.018 116.976C313.42 116.635 312.748 116.464 312.002 116.464C311.255 116.464 310.583 116.635 309.986 116.976C309.388 117.307 308.919 117.776 308.578 118.384C308.236 118.981 308.066 119.653 308.066 120.4C308.066 121.147 308.236 121.824 308.578 122.432C308.919 123.029 309.388 123.499 309.986 123.84C310.583 124.171 311.255 124.336 312.002 124.336Z" fill="#3D3D3D"/>
<path d="M331 120C331 109.507 322.493 101 312 101C301.507 101 293 109.507 293 120C293 130.493 301.507 139 312 139C322.493 139 331 130.493 331 120Z" stroke="#0032FF" stroke-width="2"/>
<path d="M20 1H380V-1H20V1ZM399 20V200H401V20H399ZM380 219H20V221H380V219ZM1 200V20H-1V200H1ZM20 219C9.50659 219 1 210.493 1 200H-1C-1 211.598 8.40203 221 20 221V219ZM399 200C399 210.493 390.493 219 380 219V221C391.598 221 401 211.598 401 200H399ZM380 1C390.493 1 399 9.50659 399 20H401C401 8.40202 391.598 -1 380 -1V1ZM20 -1C8.40202 -1 -1 8.40201 -1 20H1C1 9.50658 9.50659 1 20 1V-1Z" fill="#141414"/>
<path d="M130.376 42.18C129.632 42.18 128.936 42.126 128.288 42.018C127.652 41.91 127.1 41.754 126.632 41.55V39.408C127.16 39.624 127.73 39.798 128.342 39.93C128.954 40.062 129.554 40.128 130.142 40.128C130.982 40.128 131.6 40.05 131.996 39.894C132.392 39.738 132.59 39.384 132.59 38.832C132.59 38.484 132.506 38.208 132.338 38.004C132.17 37.8 131.876 37.62 131.456 37.464C131.048 37.296 130.466 37.11 129.71 36.906C128.498 36.57 127.646 36.15 127.154 35.646C126.662 35.142 126.416 34.446 126.416 33.558C126.416 32.49 126.806 31.668 127.586 31.092C128.366 30.516 129.5 30.228 130.988 30.228C131.684 30.228 132.332 30.276 132.932 30.372C133.532 30.468 134.018 30.582 134.39 30.714V32.856C133.406 32.484 132.38 32.298 131.312 32.298C130.556 32.298 129.962 32.382 129.53 32.55C129.098 32.706 128.882 33.042 128.882 33.558C128.882 33.858 128.96 34.098 129.116 34.278C129.272 34.458 129.536 34.62 129.908 34.764C130.292 34.908 130.826 35.07 131.51 35.25C132.458 35.502 133.19 35.802 133.706 36.15C134.222 36.498 134.576 36.894 134.768 37.338C134.972 37.782 135.074 38.28 135.074 38.832C135.074 39.84 134.69 40.65 133.922 41.262C133.154 41.874 131.972 42.18 130.376 42.18ZM139.059 42V32.28H135.495V30.408H145.035V32.28H141.489V42H139.059ZM146.376 42V30.408H151.938C153.27 30.408 154.248 30.762 154.872 31.47C155.496 32.166 155.808 33.108 155.808 34.296C155.808 35.076 155.604 35.748 155.196 36.312C154.8 36.876 154.236 37.284 153.504 37.536C153.696 37.692 153.846 37.86 153.954 38.04C154.074 38.22 154.194 38.46 154.314 38.76L155.718 42H153.198L151.83 38.886C151.71 38.622 151.578 38.436 151.434 38.328C151.29 38.22 151.05 38.166 150.714 38.166H148.806V42H146.376ZM148.806 36.15H151.308C151.944 36.15 152.442 36.012 152.802 35.736C153.162 35.448 153.342 34.968 153.342 34.296C153.342 33.648 153.186 33.174 152.874 32.874C152.562 32.574 152.088 32.424 151.452 32.424H148.806V36.15ZM157.503 42V30.408H159.933V42H157.503ZM161.985 42V30.408H164.091L169.581 38.13V30.408H172.011V42H169.905L164.415 34.278V42H161.985ZM179.641 42.18C177.697 42.18 176.221 41.67 175.213 40.65C174.205 39.63 173.701 38.214 173.701 36.402C173.701 34.482 174.211 32.976 175.231 31.884C176.251 30.78 177.769 30.228 179.785 30.228C180.481 30.228 181.111 30.27 181.675 30.354C182.239 30.426 182.773 30.546 183.277 30.714V32.802C182.773 32.622 182.239 32.496 181.675 32.424C181.123 32.34 180.553 32.298 179.965 32.298C178.585 32.298 177.607 32.64 177.031 33.324C176.455 33.996 176.167 35.022 176.167 36.402C176.167 38.886 177.337 40.128 179.677 40.128C180.085 40.128 180.481 40.098 180.865 40.038C181.261 39.966 181.609 39.876 181.909 39.768V37.068H179.209V35.52H183.961V41.19C183.565 41.442 183.013 41.67 182.305 41.874C181.597 42.078 180.709 42.18 179.641 42.18ZM189.6 42V30.408H195.162C196.494 30.408 197.472 30.762 198.096 31.47C198.72 32.166 199.032 33.108 199.032 34.296C199.032 35.076 198.828 35.748 198.42 36.312C198.024 36.876 197.46 37.284 196.728 37.536C196.92 37.692 197.07 37.86 197.178 38.04C197.298 38.22 197.418 38.46 197.538 38.76L198.942 42H196.422L195.054 38.886C194.934 38.622 194.802 38.436 194.658 38.328C194.514 38.22 194.274 38.166 193.938 38.166H192.03V42H189.6ZM192.03 36.15H194.532C195.168 36.15 195.666 36.012 196.026 35.736C196.386 35.448 196.566 34.968 196.566 34.296C196.566 33.648 196.41 33.174 196.098 32.874C195.786 32.574 195.312 32.424 194.676 32.424H192.03V36.15ZM200.727 42V30.408H209.043V32.298H203.157V35.268H208.377V37.14H203.157V40.128H209.043V42H200.727ZM214.533 42L210.105 30.408H212.643L215.847 39.282L219.069 30.408H221.607L217.197 42H214.533ZM222.84 42V30.408H231.156V32.298H225.27V35.268H230.49V37.14H225.27V40.128H231.156V42H222.84ZM232.842 42V30.408H238.404C239.736 30.408 240.714 30.762 241.338 31.47C241.962 32.166 242.274 33.108 242.274 34.296C242.274 35.076 242.07 35.748 241.662 36.312C241.266 36.876 240.702 37.284 239.97 37.536C240.162 37.692 240.312 37.86 240.42 38.04C240.54 38.22 240.66 38.46 240.78 38.76L242.184 42H239.664L238.296 38.886C238.176 38.622 238.044 38.436 237.9 38.328C237.756 38.22 237.516 38.166 237.18 38.166H235.272V42H232.842ZM235.272 36.15H237.774C238.41 36.15 238.908 36.012 239.268 35.736C239.628 35.448 239.808 34.968 239.808 34.296C239.808 33.648 239.652 33.174 239.34 32.874C239.028 32.574 238.554 32.424 237.918 32.424H235.272V36.15ZM247.569 42.18C246.825 42.18 246.129 42.126 245.481 42.018C244.845 41.91 244.293 41.754 243.825 41.55V39.408C244.353 39.624 244.923 39.798 245.535 39.93C246.147 40.062 246.747 40.128 247.335 40.128C248.175 40.128 248.793 40.05 249.189 39.894C249.585 39.738 249.783 39.384 249.783 38.832C249.783 38.484 249.699 38.208 249.531 38.004C249.363 37.8 249.069 37.62 248.649 37.464C248.241 37.296 247.659 37.11 246.903 36.906C245.691 36.57 244.839 36.15 244.347 35.646C243.855 35.142 243.609 34.446 243.609 33.558C243.609 32.49 243.999 31.668 244.779 31.092C245.559 30.516 246.693 30.228 248.181 30.228C248.877 30.228 249.525 30.276 250.125 30.372C250.725 30.468 251.211 30.582 251.583 30.714V32.856C250.599 32.484 249.573 32.298 248.505 32.298C247.749 32.298 247.155 32.382 246.723 32.55C246.291 32.706 246.075 33.042 246.075 33.558C246.075 33.858 246.153 34.098 246.309 34.278C246.465 34.458 246.729 34.62 247.101 34.764C247.485 34.908 248.019 35.07 248.703 35.25C249.651 35.502 250.383 35.802 250.899 36.15C251.415 36.498 251.769 36.894 251.961 37.338C252.165 37.782 252.267 38.28 252.267 38.832C252.267 39.84 251.883 40.65 251.115 41.262C250.347 41.874 249.165 42.18 247.569 42.18ZM252.609 42L257.037 30.408H259.701L264.111 42H261.591L260.493 39.21H256.227L255.147 42H252.609ZM256.587 37.338H260.133L258.351 32.676L256.587 37.338ZM265.801 42V30.408H268.231V40.128H273.937V42H265.801Z" fill="black"/>
</g>
<defs>
<clipPath id="clip0_1_55">
<rect width="400" height="220" fill="white"/>
</clipPath>
</defs>
</svg>
